<svg width="25" height="24" viewBox="0 0 25 24" fill="none" xmlns="http://www.w3.org/2000/svg">
<path d="M19.3182 19.6364H5.68182C5.35985 19.6364 5.08978 19.5316 4.87159 19.3222C4.65341 19.1127 4.5447 18.8538 4.54546 18.5455V15.9818C4.54546 15.6182 4.62614 15.2818 4.7875 14.9727C4.94887 14.6636 5.18068 14.4091 5.48296 14.2091C6.44886 13.5182 7.56174 12.9771 8.82159 12.5858C10.0814 12.1945 11.3076 11.9993 12.5 12C13.6932 12 14.9197 12.1953 16.1795 12.5858C17.4394 12.9764 18.5519 13.5175 19.517 14.2091C19.8201 14.4091 20.0523 14.6636 20.2136 14.9727C20.375 15.2818 20.4553 15.6182 20.4545 15.9818V18.5455C20.4545 18.8545 20.3455 19.1138 20.1273 19.3233C19.9091 19.5327 19.6394 19.6371 19.3182 19.6364ZM6.81818 17.4545H18.1818V15.9818C17.3864 15.4182 16.4867 14.9771 15.483 14.6585C14.4792 14.34 13.4848 14.1811 12.5 14.1818C11.5152 14.1818 10.5208 14.3364 9.51705 14.6455C8.51326 14.9545 7.61364 15.3909 6.81818 15.9545V17.4545ZM12.5 10.9091C11.25 10.9091 10.1799 10.4818 9.28977 9.62727C8.39962 8.77273 7.95455 7.74546 7.95455 6.54546C7.95455 5.34546 8.39962 4.31818 9.28977 3.46364C10.1799 2.60909 11.25 2.18182 12.5 2.18182C13.75 2.18182 14.8201 2.60909 15.7102 3.46364C16.6004 4.31818 17.0455 5.34546 17.0455 6.54546C17.0455 7.74546 16.6004 8.77273 15.7102 9.62727C14.8201 10.4818 13.75 10.9091 12.5 10.9091ZM12.5 8.72727C13.125 8.72727 13.6602 8.51346 14.1057 8.08582C14.5511 7.65818 14.7735 7.14473 14.7727 6.54546C14.7727 5.94546 14.55 5.43164 14.1045 5.004C13.6591 4.57637 13.1242 4.36291 12.5 4.36364C11.875 4.36364 11.3398 4.57746 10.8943 5.00509C10.4489 5.43273 10.2265 5.94618 10.2273 6.54546C10.2273 7.14546 10.45 7.65927 10.8955 8.08691C11.3409 8.51455 11.8758 8.728 12.5 8.72727ZM4.54546 2.18182H2.27273V4.36364C2.27273 4.67273 2.16364 4.932 1.94546 5.14146C1.72728 5.35091 1.45758 5.45527 1.13637 5.45455C0.814398 5.45455 0.544322 5.34982 0.32614 5.14037C0.107958 4.93091 -0.000753643 4.672 3.93206e-06 4.36364V2.18182C3.93206e-06 1.58182 0.222731 1.068 0.668186 0.640367C1.11364 0.212731 1.64849 -0.000723498 2.27273 3.77477e-06H4.54546C4.86743 3.77477e-06 5.1375 0.104731 5.35568 0.314185C5.57387 0.52364 5.68258 0.782549 5.68182 1.09091C5.68182 1.4 5.57273 1.65928 5.35455 1.86873C5.13637 2.07819 4.86667 2.18255 4.54546 2.18182ZM2.27273 24C1.64773 24 1.1125 23.7862 0.667049 23.3585C0.221595 22.9309 -0.000753643 22.4175 3.93206e-06 21.8182V19.6364C3.93206e-06 19.3273 0.109095 19.068 0.327277 18.8585C0.545458 18.6491 0.815155 18.5447 1.13637 18.5455C1.45834 18.5455 1.72841 18.6502 1.94659 18.8596C2.16478 19.0691 2.27349 19.328 2.27273 19.6364V21.8182H4.54546C4.86743 21.8182 5.1375 21.9229 5.35568 22.1324C5.57387 22.3418 5.68258 22.6007 5.68182 22.9091C5.68182 23.2182 5.57273 23.4775 5.35455 23.6869C5.13637 23.8964 4.86667 24.0007 4.54546 24H2.27273ZM22.7273 24H20.4545C20.1326 24 19.8625 23.8953 19.6443 23.6858C19.4261 23.4764 19.3174 23.2175 19.3182 22.9091C19.3182 22.6 19.4273 22.3407 19.6455 22.1313C19.8636 21.9218 20.1333 21.8175 20.4545 21.8182H22.7273V19.6364C22.7273 19.3273 22.8364 19.068 23.0545 18.8585C23.2727 18.6491 23.5424 18.5447 23.8636 18.5455C24.1856 18.5455 24.4557 18.6502 24.6739 18.8596C24.892 19.0691 25.0008 19.328 25 19.6364V21.8182C25 22.4182 24.7773 22.932 24.3318 23.3596C23.8864 23.7873 23.3515 24.0007 22.7273 24ZM20.4545 2.18182C20.1326 2.18182 19.8625 2.07709 19.6443 1.86764C19.4261 1.65819 19.3174 1.39928 19.3182 1.09091C19.3182 0.781822 19.4273 0.522549 19.6455 0.313095C19.8636 0.10364 20.1333 -0.000723498 20.4545 3.77477e-06H22.7273C23.3523 3.77477e-06 23.8875 0.213822 24.333 0.641458C24.7784 1.06909 25.0008 1.58255 25 2.18182V4.36364C25 4.67273 24.8909 4.932 24.6727 5.14146C24.4545 5.35091 24.1848 5.45527 23.8636 5.45455C23.5417 5.45455 23.2716 5.34982 23.0534 5.14037C22.8352 4.93091 22.7265 4.672 22.7273 4.36364V2.18182H20.4545Z" fill="black"/>
</svg>
