<svg width="19" height="19" viewBox="0 0 19 19" fill="none" xmlns="http://www.w3.org/2000/svg">
<path d="M0 1.58333C0 0.707552 0.606473 0 1.35714 0H17.6429C18.3935 0 19 0.707552 19 1.58333C19 2.45911 18.3935 3.16667 17.6429 3.16667H1.35714C0.606473 3.16667 0 2.45911 0 1.58333ZM0 9.5C0 8.62422 0.606473 7.91667 1.35714 7.91667H17.6429C18.3935 7.91667 19 8.62422 19 9.5C19 10.3758 18.3935 11.0833 17.6429 11.0833H1.35714C0.606473 11.0833 0 10.3758 0 9.5ZM19 17.4167C19 18.2924 18.3935 19 17.6429 19H1.35714C0.606473 19 0 18.2924 0 17.4167C0 16.5409 0.606473 15.8333 1.35714 15.8333H17.6429C18.3935 15.8333 19 16.5409 19 17.4167Z" fill="#568281"/>
</svg>
