<svg width="20" height="16" viewBox="0 0 20 16" fill="none" xmlns="http://www.w3.org/2000/svg">
<path d="M13 7.5L16.5 5.5L13 3.5L9.5 5.5L13 7.5ZM13 9.925L15.5 8.5V7L13 8.425L10.5 7V8.5L13 9.925ZM3 16C3 15.1667 2.70833 14.4583 2.125 13.875C1.54167 13.2917 0.833333 13 0 13V11C1.38333 11 2.56233 11.4873 3.537 12.462C4.51233 13.4373 5 14.6167 5 16H3ZM7 16C7 14.05 6.321 12.3957 4.963 11.037C3.60433 9.679 1.95 9 0 9V7C1.25 7 2.421 7.23733 3.513 7.712C4.60433 8.18733 5.55433 8.829 6.363 9.637C7.171 10.4457 7.81267 11.396 8.288 12.488C8.76267 13.5793 9 14.75 9 16H7ZM11 16C11 14.4833 10.7123 13.0583 10.137 11.725C9.56233 10.3917 8.775 9.225 7.775 8.225C6.775 7.225 5.60833 6.43767 4.275 5.863C2.94167 5.28767 1.51667 5 0 5V0H20V16H11Z" fill="black"/>
</svg>
